<svg width="25" height="25" viewBox="0 0 25 25" fill="none" xmlns="http://www.w3.org/2000/svg">
<g opacity="0.5">
<path d="M16.5 13.4V17.6C16.5 21.1 15.1 22.5 11.6 22.5H7.4C3.9 22.5 2.5 21.1 2.5 17.6V13.4C2.5 9.9 3.9 8.5 7.4 8.5H11.6C15.1 8.5 16.5 9.9 16.5 13.4Z" stroke="white" stroke-width="1.5" stroke-linecap="round" stroke-linejoin="round"/>
<path d="M22.5 7.4V11.6C22.5 15.1 21.1 16.5 17.6 16.5H16.5V13.4C16.5 9.9 15.1 8.5 11.6 8.5H8.5V7.4C8.5 3.9 9.9 2.5 13.4 2.5H17.6C21.1 2.5 22.5 3.9 22.5 7.4Z" stroke="white" stroke-width="1.5" stroke-linecap="round" stroke-linejoin="round"/>
</g>
</svg>
