<svg width="17" height="17" viewBox="0 0 17 17" fill="none" xmlns="http://www.w3.org/2000/svg">
<g id="ic:sharp-email">
<path id="Vector" d="M15.6144 4.15404C15.6144 3.57871 15.148 3.1123 14.5727 3.1123H2.76635C2.19101 3.1123 1.72461 3.57871 1.72461 4.15404V13.1824C1.72461 13.7577 2.19101 14.2241 2.76634 14.2241H14.5727C15.148 14.2241 15.6144 13.7577 15.6144 13.1824V4.15404ZM14.2254 5.56385C14.2254 5.76691 14.1208 5.95564 13.9486 6.06326L9.22163 9.01764C8.88383 9.22877 8.4552 9.22877 8.11739 9.01764L3.39039 6.06326C3.21819 5.95564 3.11359 5.76691 3.11359 5.56385C3.11359 5.10129 3.62239 4.81929 4.01465 5.06445L8.11739 7.62866C8.4552 7.83979 8.88383 7.83979 9.22163 7.62866L13.3244 5.06445C13.7166 4.81929 14.2254 5.10129 14.2254 5.56385Z" fill="url(#paint0_radial_214_7254)"/>
</g>
<defs>
<radialGradient id="paint0_radial_214_7254" cx="0" cy="0" r="1" gradientUnits="userSpaceOnUse" gradientTransform="translate(2.73258 5.12521) rotate(37.7762) scale(15.1566 35.1844)">
<stop stop-color="#E97000"/>
<stop offset="0.254781" stop-color="#FF7A00"/>
<stop offset="1" stop-color="#FFA149"/>
</radialGradient>
</defs>
</svg>
