<svg width="18" height="17" viewBox="0 0 18 17" fill="none" xmlns="http://www.w3.org/2000/svg">
<g id="Frame 1000002482">
<g id="Vector">
<path fill-rule="evenodd" clip-rule="evenodd" d="M8.80144 0.112793H9.38123C10.8949 0.112784 12.0882 0.112778 13.0365 0.215514C14.0066 0.320623 14.8032 0.539983 15.4859 1.03601C15.8963 1.33417 16.2572 1.69507 16.5554 2.10545C17.0514 2.78817 17.2707 3.58474 17.3758 4.55489C17.4786 5.50314 17.4786 6.69646 17.4786 8.21011V8.78994C17.4786 10.3036 17.4786 11.4969 17.3758 12.4452C17.2707 13.4153 17.0514 14.2119 16.5554 14.8946C16.2572 15.305 15.8963 15.6659 15.4859 15.964C14.8032 16.4601 14.0066 16.6794 13.0365 16.7845C12.0882 16.8873 10.8949 16.8873 9.38125 16.8873H8.80142C7.28777 16.8873 6.09444 16.8873 5.1462 16.7845C4.17605 16.6794 3.37948 16.4601 2.69676 15.964C2.28637 15.6659 1.92548 15.305 1.62732 14.8946C1.13129 14.2119 0.911931 13.4153 0.806822 12.4452C0.704086 11.4969 0.704093 10.3036 0.704102 8.78993V8.21013C0.704093 6.69647 0.704086 5.50314 0.806822 4.55489C0.911931 3.58474 1.13129 2.78817 1.62732 2.10545C1.92548 1.69507 2.28637 1.33417 2.69676 1.03601C3.37948 0.539983 4.17605 0.320623 5.1462 0.215514C6.09445 0.112778 7.28778 0.112784 8.80144 0.112793ZM5.29751 1.6121C4.44688 1.70426 3.9258 1.87944 3.52245 2.17248C3.23133 2.384 2.97531 2.64002 2.76379 2.93114C2.47074 3.33449 2.29557 3.85558 2.20341 4.7062C2.10982 5.56997 2.10886 6.68723 2.10886 8.25213V8.74793C2.10886 10.3128 2.10982 11.4301 2.20341 12.2939C2.29557 13.1445 2.47074 13.6656 2.76379 14.0689C2.97531 14.36 3.23133 14.6161 3.52245 14.8276C3.9258 15.1206 4.44688 15.2958 5.29751 15.388C6.16128 15.4815 7.27854 15.4825 8.84344 15.4825H9.33923C10.9041 15.4825 12.0214 15.4815 12.8852 15.388C13.7358 15.2958 14.2569 15.1206 14.6602 14.8276C14.9513 14.6161 15.2074 14.36 15.4189 14.0689C15.7119 13.6656 15.8871 13.1445 15.9793 12.2939C16.0728 11.4301 16.0738 10.3128 16.0738 8.74793V8.25213C16.0738 6.68723 16.0728 5.56997 15.9793 4.7062C15.8871 3.85558 15.7119 3.33449 15.4189 2.93114C15.2074 2.64002 14.9513 2.384 14.6602 2.17248C14.2569 1.87944 13.7358 1.70426 12.8852 1.6121C12.0214 1.51852 10.9041 1.51755 9.33923 1.51755H8.84344C7.27854 1.51755 6.16128 1.51852 5.29751 1.6121Z" fill="white"/>
<path fill-rule="evenodd" clip-rule="evenodd" d="M9.09134 5.64919C7.51686 5.64919 6.2405 6.92556 6.2405 8.50003C6.2405 10.0745 7.51686 11.3509 9.09134 11.3509C10.6658 11.3509 11.9422 10.0745 11.9422 8.50003C11.9422 6.92556 10.6658 5.64919 9.09134 5.64919ZM4.83574 8.50003C4.83574 6.14973 6.74104 4.24444 9.09134 4.24444C11.4416 4.24444 13.3469 6.14973 13.3469 8.50003C13.3469 10.8503 11.4416 12.7556 9.09134 12.7556C6.74104 12.7556 4.83574 10.8503 4.83574 8.50003Z" fill="white"/>
<path d="M12.6445 4.00687C12.6445 3.47634 13.0746 3.04626 13.6052 3.04626C14.1357 3.04626 14.5658 3.47634 14.5658 4.00687C14.5658 4.53739 14.1357 4.96747 13.6052 4.96747C13.0746 4.96747 12.6445 4.53739 12.6445 4.00687Z" fill="white"/>
</g>
</g>
</svg>
