<svg width="17" height="16" viewBox="0 0 17 16" fill="none" xmlns="http://www.w3.org/2000/svg">
<path d="M14.2158 12.6667V11.5694C14.2158 11.0242 13.8839 10.5339 13.3777 10.3314L12.0216 9.78897C11.3777 9.53143 10.6439 9.81041 10.3338 10.4307L10.2158 10.6667C10.2158 10.6667 8.54915 10.3333 7.21582 9C5.88249 7.66667 5.54915 6 5.54915 6L5.78516 5.88199C6.40541 5.57187 6.68439 4.83809 6.42685 4.19424L5.88441 2.83815C5.68193 2.33194 5.19165 2 4.64644 2H3.54915C2.81277 2 2.21582 2.59695 2.21582 3.33333C2.21582 9.22437 6.99145 14 12.8825 14C13.6189 14 14.2158 13.403 14.2158 12.6667Z" fill="url(#paint0_radial_0_1108)"/>
<defs>
<radialGradient id="paint0_radial_0_1108" cx="0" cy="0" r="1" gradientUnits="userSpaceOnUse" gradientTransform="translate(3.08665 4.1738) rotate(44.0911) scale(14.4103 34.527)">
<stop stop-color="#E97000"/>
<stop offset="0.254781" stop-color="#FF7A00"/>
<stop offset="1" stop-color="#FFA149"/>
</radialGradient>
</defs>
</svg>
