<svg width="17" height="17" viewBox="0 0 17 17" fill="none" xmlns="http://www.w3.org/2000/svg">
<g id="Frame 1000002481">
<g id="Union">
<path d="M6.15494 7.52912C5.40879 7.81554 4.64214 8.10984 3.94111 8.44933C3.57502 8.68499 4.06167 8.8517 4.51813 9.00807C4.59065 9.03291 4.6624 9.05749 4.72985 9.08204C4.78601 9.09722 4.84313 9.11321 4.90101 9.12943C5.40864 9.27162 5.97469 9.43018 6.46751 9.19166C7.27709 8.78279 8.04109 8.31007 8.80452 7.83771C9.05463 7.68296 9.30469 7.52824 9.55626 7.37582C9.56805 7.36919 9.58135 7.36161 9.59589 7.35332C9.81022 7.23118 10.2922 6.9565 10.1139 7.33499C9.69231 7.74036 9.24073 8.09919 8.7867 8.45998C8.48071 8.70313 8.1736 8.94717 7.87379 9.20693C7.61267 9.39346 7.34154 9.76858 7.63392 10.0298C8.30735 10.4443 8.9913 10.8487 9.67486 11.2529C9.8973 11.3845 10.1197 11.516 10.3417 11.6478C10.7179 11.9119 11.3058 11.6983 11.3886 11.2856C11.4253 11.0958 11.4623 10.906 11.4992 10.7162C11.7033 9.66708 11.9074 8.61763 12.0878 7.56513C12.1123 7.40004 12.1401 7.23495 12.1679 7.06978C12.2353 6.66946 12.3027 6.26866 12.3238 5.86618C12.2695 5.46455 11.7156 5.55286 11.4073 5.64317C9.82291 6.17323 8.25432 6.74258 6.69195 7.32198C6.51496 7.39092 6.33555 7.45979 6.15494 7.52912Z" fill="white"/>
<path fill-rule="evenodd" clip-rule="evenodd" d="M8.27409 0.112793C6.76043 0.112784 5.5671 0.112778 4.61886 0.215514C3.64871 0.320623 2.85214 0.539983 2.16941 1.03601C1.75903 1.33417 1.39813 1.69507 1.09997 2.10545C0.603947 2.78817 0.384588 3.58474 0.279479 4.55489C0.176742 5.50314 0.176749 6.69647 0.176758 8.21013V8.78992C0.176749 10.3036 0.176742 11.4969 0.279479 12.4452C0.384588 13.4153 0.603947 14.2119 1.09997 14.8946C1.39813 15.305 1.75903 15.6659 2.16941 15.964C2.85214 16.4601 3.64871 16.6794 4.61886 16.7845C5.56709 16.8873 6.76041 16.8873 8.27405 16.8873H8.85391C10.3675 16.8873 11.5609 16.8873 12.5091 16.7845C13.4793 16.6794 14.2758 16.4601 14.9586 15.964C15.369 15.6659 15.7298 15.305 16.028 14.8946C16.524 14.2119 16.7434 13.4153 16.8485 12.4452C16.9512 11.4969 16.9512 10.3036 16.9512 8.78997V8.21011C16.9512 6.69647 16.9512 5.50313 16.8485 4.55489C16.7434 3.58474 16.524 2.78817 16.028 2.10545C15.7298 1.69507 15.369 1.33417 14.9586 1.03601C14.2758 0.539983 13.4793 0.320623 12.5091 0.215514C11.5609 0.112778 10.3676 0.112784 8.85389 0.112793H8.27409ZM2.99511 2.17248C3.39845 1.87944 3.91954 1.70426 4.77017 1.6121C5.63394 1.51852 6.75119 1.51755 8.31609 1.51755H8.81189C10.3768 1.51755 11.494 1.51852 12.3578 1.6121C13.2084 1.70426 13.7295 1.87944 14.1329 2.17248C14.424 2.384 14.68 2.64002 14.8915 2.93114C15.1846 3.33449 15.3598 3.85558 15.4519 4.7062C15.5455 5.56997 15.5465 6.68723 15.5465 8.25213V8.74793C15.5465 10.3128 15.5455 11.4301 15.4519 12.2939C15.3598 13.1445 15.1846 13.6656 14.8915 14.0689C14.68 14.36 14.424 14.6161 14.1329 14.8276C13.7295 15.1206 13.2084 15.2958 12.3578 15.388C11.494 15.4815 10.3768 15.4825 8.81189 15.4825H8.31609C6.75119 15.4825 5.63394 15.4815 4.77017 15.388C3.91954 15.2958 3.39845 15.1206 2.99511 14.8276C2.70398 14.6161 2.44796 14.36 2.23645 14.0689C1.9434 13.6656 1.76822 13.1445 1.67606 12.2939C1.58248 11.4301 1.58152 10.3128 1.58152 8.74793V8.25213C1.58152 6.68723 1.58248 5.56997 1.67606 4.7062C1.76822 3.85558 1.9434 3.33449 2.23645 2.93114C2.44796 2.64002 2.70398 2.384 2.99511 2.17248Z" fill="white"/>
</g>
</g>
</svg>
