<svg width="17" height="17" viewBox="0 0 17 17" fill="none" xmlns="http://www.w3.org/2000/svg">
<g id="Frame 1000002483">
<g id="Union">
<path d="M6.84305 11.4451L11.801 8.58266L6.84305 5.72017V11.4451Z" fill="white"/>
<path fill-rule="evenodd" clip-rule="evenodd" d="M8.32976 0.112793C6.8161 0.112784 5.62277 0.112778 4.67452 0.215514C3.70437 0.320623 2.9078 0.539983 2.22508 1.03601C1.81469 1.33417 1.4538 1.69507 1.15564 2.10545C0.659611 2.78817 0.440252 3.58474 0.335143 4.55489C0.232406 5.50314 0.232413 6.69647 0.232422 8.21013V8.78993C0.232413 10.3036 0.232406 11.4969 0.335143 12.4452C0.440252 13.4153 0.659611 14.2119 1.15564 14.8946C1.4538 15.305 1.81469 15.6659 2.22508 15.964C2.9078 16.4601 3.70437 16.6794 4.67452 16.7845C5.62276 16.8873 6.81607 16.8873 8.32971 16.8873H8.90957C10.4232 16.8873 11.6166 16.8873 12.5648 16.7845C13.5349 16.6794 14.3315 16.4601 15.0142 15.964C15.4246 15.6659 15.7855 15.305 16.0837 14.8946C16.5797 14.2119 16.7991 13.4153 16.9042 12.4452C17.0069 11.4969 17.0069 10.3036 17.0069 8.78997V8.21011C17.0069 6.69647 17.0069 5.50313 16.9042 4.55489C16.7991 3.58474 16.5797 2.78817 16.0837 2.10545C15.7855 1.69507 15.4246 1.33417 15.0142 1.03601C14.3315 0.539983 13.5349 0.320623 12.5648 0.215514C11.6165 0.112778 10.4232 0.112784 8.90955 0.112793H8.32976ZM3.05077 2.17248C3.45412 1.87944 3.97521 1.70426 4.82583 1.6121C5.6896 1.51852 6.80686 1.51755 8.37176 1.51755H8.86755C10.4325 1.51755 11.5497 1.51852 12.4135 1.6121C13.2641 1.70426 13.7852 1.87944 14.1885 2.17248C14.4797 2.384 14.7357 2.64002 14.9472 2.93114C15.2402 3.33449 15.4154 3.85558 15.5076 4.7062C15.6012 5.56997 15.6021 6.68723 15.6021 8.25213V8.74793C15.6021 10.3128 15.6012 11.4301 15.5076 12.2939C15.4154 13.1445 15.2402 13.6656 14.9472 14.0689C14.7357 14.36 14.4797 14.6161 14.1885 14.8276C13.7852 15.1206 13.2641 15.2958 12.4135 15.388C11.5497 15.4815 10.4325 15.4825 8.86755 15.4825H8.37176C6.80686 15.4825 5.6896 15.4815 4.82583 15.388C3.97521 15.2958 3.45412 15.1206 3.05077 14.8276C2.75965 14.6161 2.50363 14.36 2.29211 14.0689C1.99906 13.6656 1.82389 13.1445 1.73173 12.2939C1.63814 11.4301 1.63718 10.3128 1.63718 8.74793V8.25213C1.63718 6.68723 1.63814 5.56997 1.73173 4.7062C1.82389 3.85558 1.99906 3.33449 2.29211 2.93114C2.50363 2.64002 2.75965 2.384 3.05077 2.17248Z" fill="white"/>
</g>
</g>
</svg>
